/* XPM */
static char * crow128_xpm[] = {
"129 129 42 1",
" 	c None",
".	c #373737",
"+	c #434343",
"@	c #3F3F3F",
"#	c #3A3A3A",
"$	c #545454",
"%	c #464646",
"&	c #393939",
"*	c #404040",
"=	c #4C4C4C",
"-	c #3C3C3C",
";	c #424242",
">	c #525252",
",	c #484848",
"'	c #4B4B4B",
")	c #4F4F4F",
"!	c #474747",
"~	c #454545",
"{	c #313131",
"]	c #303030",
"^	c #292929",
"/	c #272727",
"(	c #252525",
"_	c #1D1D1D",
":	c #202020",
"<	c #3E3E3E",
"[	c #242424",
"}	c #333333",
"|	c #353535",
"1	c #2C2C2C",
"2	c #1F1F1F",
"3	c #2F2F2F",
"4	c #2D2D2D",
"5	c #1E1E1E",
"6	c #363636",
"7	c #232323",
"8	c #2B2B2B",
"9	c #494949",
"0	c #343434",
"a	c #323232",
"b	c #222222",
"c	c #2E2E2E",
"                                                                                                                                 ",
"                                                                                                                                 ",
"                                                                                                                                 ",
"                                                                                                                                 ",
"                                                                                                                                 ",
"                                                                     .......                                                     ",
"                                                                   ..+@.......                                                   ",
"                                                                .....#$$%&.....                                                  ",
"                                                              ........*$$$=-....                                                 ",
"                                                             ..........;$$$$>;...                                                ",
"                                                           .............,$$$$$$'#                                                ",
"                                                          ..............&=$$$$$$$ $$$                                            ",
"                                                          ................)$$$$$!&$$$$$$                                         ",
"                                                         .................&>$$$$#.$$$$$$$$$$                                     ",
"                                                        ...................&$$$>..~$$$$$$$$$$$$$                                 ",
"                                                       {{{]^/////((___:{/{..<$$~.&#$$$$$$$$$$$$$$$$                              ",
"                                                       _____________[}|:___1.;$....$$$$$$$$$$$$$$$                               ",
"                                                      ___________21..1_______[ ....'$$$$$$$$$$$                                  ",
"                                                      _________(}..|:__________23..*$$$$$$$                                      ",
"                                                      ______:4....1_______________1.$$$                                          ",
"                                                     _____(|....|:_________________5                                             ",
"                                                     __:4......1_________________{)$                                             ",
"                                                     /6......6:______________:.)$$$$$                                            ",
"                                                    ........4_____________:.$$$$$$$$$                                            ",
"                                                    ......6:___________7+$$$$$$$$$$$$                                            ",
"                                                   ......4__________7+$$$$$$$$$$$$$$$                                            ",
"                                                   ....6:________89$$$$$$$$$$$$$$$$$$                                            ",
"                                                  ....4_______89$$$$$$$$$$$$$$$$$$$$$$                                           ",
"                                                  ..6:_____{)$$$$$$$$$$$$$$$$$$$$$$$$$                                           ",
"                                                 ..4___:0$$$$$$$$$$$$$$$$$$$$$$$$$$$$$                                           ",
"                                                 6:_:.$$$$$$$$$$$$$$$$$$$$$$$$$$$$$$$$                                           ",
"                                                 (;$$$$$$$$$$$$$$$$$$$$$$$$$$$$$$$$$$$$                                          ",
"                                                 *))$$$$$$$$$$$$$$$$$$$$$$$$$$$$$$$$$$$                                          ",
"                                                /......-;=)$$$$$$$$$$$$$$$$$$$$$$$$$$$$                                          ",
"                                               __.............#;,)>$$$$$$$$$$$$$$$$$$$$                                          ",
"                                               __4....................*;))$$$$$$$$$$$$$$                                         ",
"                                               __5...........................-;=)>$$$$$$                                         ",
"                                              ____a.............................&....;!)                                         ",
"                                              ____:.....................................                                         ",
"                                              _____|...................................._                                        ",
"                                              _____7....................................__                                       ",
"                                             _______...................................0___                                      ",
"                                             _______/..................................1____                                     ",
"                                             ________..................................[_____                                    ",
"                                             ________1.................................:_____                                    ",
"                                             ________5................................._______                                   ",
"                                            __________a................................_______                                   ",
"                                            __________2................................_______                                   ",
"                                            ___________|..............................{_______                                   ",
"                                            ___________7..............................8______                                    ",
"                                            ____________..............................7______                                    ",
"                                           _____________/.............................2______                                    ",
"                                           ______________............................._______                                    ",
"                                           ______________1............................______                                     ",
"                                           ______________5............................______                                     ",
"                                          ________________a..........................{______                                     ",
"                                          ________________5..........................8_____                                      ",
"                                          _________________|.........................b_____                                      ",
"                                          _________________7.........................5_____                                      ",
"                                          __________________.........................______                                      ",
"                                         ___________________/........................_____                                       ",
"                                         ____________________........................_____                                       ",
"                                         ____________________1......................c_____                                       ",
"                                         _____________________......................8_____                                       ",
"                                        ______________________a.....................b____                                        ",
"                                        ______________________5.....................5____                                        ",
"                                        _______________________|...................._____                                        ",
"                                        _______________________7...................._____                                        ",
"                                        ________________________....................____                                         ",
"                                       _________________________/..................c____                                         ",
"                                       __________________________................../____                                         ",
"                                       __________________________1.................b___                                          ",
"                                       ___________________________.................____                                          ",
"                                      ____________________________a................____                                          ",
"                                      ____________________________5&...............____                                          ",
"                                      _____________________________0...............___                                           ",
"                                      _____________________________7..............1___                                           ",
"                                      ______________________________............../___                                           ",
"                                     _______________________________/.............b___                                           ",
"                                     ________________________________.............___                                            ",
"                                     ________________________________1............___                                            ",
"                                     _________________________________............___                                            ",
"                                    __________________________________a..........|__                                             ",
"                                    __________________________________2..........1__                                             ",
"                                    ___________________________________|.........[__                                             ",
"                                    ___________________________________b.........:__                                             ",
"                                    ____________________________________.........__                                              ",
"                                   _____________________________________(........__                                              ",
"                                   ______________________________________........__                                              ",
"                                   ______________________________________1......0__                                              ",
"                                   _______________________________________......1_                                               ",
"                                  ________________________________________{.....[_                                               ",
"                                  ________________________________________5.....2_                                               ",
"                                  _________________________________________|...._                                                ",
"                                  _________________________________________b...._                                                ",
"                                  __________________________________________...._                                                ",
"                                 ___________________________________________/..{_                                                ",
"                                 ____________________________________________..8                                                 ",
"                                 ____________________________________________1.7                                                 ",
"                                 _____________________________________________.                                                  ",
"                                ______________________________________________a                                                  ",
"                                __________________________                                                                       ",
"                                _________________________                                                                        ",
"                                _______________________                                                                          ",
"                                ______________________                                                                           ",
"                               _____________________                                                                             ",
"                               ____________________                                                                              ",
"                               ___________________                                                                               ",
"                               _________________                                                                                 ",
"                              _________________                                                                                  ",
"                              ________________                                                                                   ",
"                              ______________                                                                                     ",
"                              _____________                                                                                      ",
"                              ___________                                                                                        ",
"                             ___________                                                                                         ",
"                             __________                                                                                          ",
"                             ________                                                                                            ",
"                             _______                                                                                             ",
"                            ______                                                                                               ",
"                            _____                                                                                                ",
"                            ____                                                                                                 ",
"                            __                                                                                                   ",
"                            _                                                                                                    ",
"                                                                                                                                 ",
"                                                                                                                                 ",
"                                                                                                                                 ",
"                                                                                                                                 ",
"                                                                                                                                 ",
"                                                                                                                                 "};
