/* XPM */
static char * crow64_xpm[] = {
"65 65 38 1",
" 	c None",
".	c #373737",
"+	c #393939",
"@	c #545454",
"#	c #4B4B4B",
"$	c #3F3F3F",
"%	c #505050",
"&	c #414141",
"*	c #424242",
"=	c #474747",
"-	c #494949",
";	c #4F4F4F",
">	c #3C3C3C",
",	c #525252",
"'	c #3A3A3A",
")	c #3E3E3E",
"!	c #363636",
"~	c #313131",
"{	c #1D1D1D",
"]	c #202020",
"^	c #303030",
"/	c #323232",
"(	c #1E1E1E",
"_	c #1F1F1F",
":	c #343434",
"<	c #454545",
"[	c #282828",
"}	c #353535",
"|	c #272727",
"1	c #2E2E2E",
"2	c #222222",
"3	c #242424",
"4	c #2B2B2B",
"5	c #212121",
"6	c #404040",
"7	c #252525",
"8	c #484848",
"9	c #2F2F2F",
"                                                                 ",
"                                                                 ",
"                                                                 ",
"                                                                 ",
"                                                                 ",
"                                                                 ",
"                                                                 ",
"                                                                 ",
"                                                                 ",
"                                                                 ",
"                                                                 ",
"                                                                 ",
"                                                                 ",
"                                                                 ",
"                                                                 ",
"                          ...........                            ",
"                        ...+@#+.......                           ",
"                      ......$@@%&......                          ",
"                    .........*@@@@=.....                         ",
"                  ............-@@@@@;>..                         ",
"                 ..............;@@@@@@,*.                        ",
"                ................,@@@@@@@, @@@                    ",
"               ..................@@@@@@@*'@@@@@@                 ",
"              ...................'@@@@@@+.@@@@@@@@@@             ",
"             .....................)@@@@,..#@@@@@@@@@@@@          ",
"            ..............!~~~ ....)@@@*..)@@@@@@@@@@@@@@@@      ",
"            {{{{{{{{{{{{{{{{]^/(_:..<@@+...@@@@@@@@@@@@@@@@@@    ",
"           {{{{{{{{{{{{{{{[}.|{{{{{1.#,....,@@@@@@@@@@@@@@@      ",
"           {{{{{{{{{{{{2^../({{{{{{{{| ....&@@@@@@@@@@@@         ",
"           {{{{{{{{{([....|{{{{{{{{{{{{_:...@@@@@@@@             ",
"          {{{{{{{{2/..../({{{{{{{{{{{{{{{{1.@@@@                 ",
"          {{{{{([......|{{{{{{{{{{{{{{{{{{{{                     ",
"          {{{3/....../({{{{{{{{{{{{{{{{{{(:@@                    ",
"         {(4........|{{{{{{{{{{{{{{{{{]:@@@@@                    ",
"         .........:({{{{{{{{{{{{{{{56@@@@@@@@                    ",
"         ........|{{{{{{{{{{{{{{7*@@@@@@@@@@@                    ",
"        .......:({{{{{{{{{{{{|8@@@@@@@@@@@@@@                    ",
"        ......|{{{{{{{{{{{9-@@@@@@@@@@@@@@@@@@                   ",
"       .....:({{{{{{{{{9;@@@@@@@@@@@@@@@@@@@@@                   ",
"       ....|{{{{{{{(:@@@@@@@@@@@@@@@@@@@@@@@@@                   ",
"      ...:({{{{{(:@@@@@@@@@@@@@@@@@@@@@@@@@@@@                   ",
"     ...|{{{{56@@@@@@@@@@@@@@@@@@@@@@@@@@@@@@@@                  ",
"     .:_{{|6@@@@@@@@@@@@@@@@@@@@@@@@@@@@@@@@@@@                  ",
"     |{|8@@@@@@@@@@@@@@@@@@@@@@@@@@@@@@@@@@@@@@                  ",
"      @@@@@@@@@@@@@@@@@@@@@@@@@@@@@@@@@@@@@@@@@                  ",
"          @@@@@@@@@@@@@@@@@@@@@@@@@@@@@@@@@@@@@@                 ",
"                 @@@@@@@@@@@@@@@@@@@@@@@@@@@@@@@                 ",
"                         @@@@@@@@@@@@@@@@@@@@@@@                 ",
"                                @@@@@@@@@@@@@@@@                 ",
"                                       @@@@@@@@@@                ",
"                                               @                 ",
"                                                                 ",
"                                                                 ",
"                                                                 ",
"                                                                 ",
"                                                                 ",
"                                                                 ",
"                                                                 ",
"                                                                 ",
"                                                                 ",
"                                                                 ",
"                                                                 ",
"                                                                 ",
"                                                                 ",
"                                                                 "};
