/* XPM */
static char * crow16_xpm[] = {
"16 17 28 1",
" 	c None",
".	c #373737",
"+	c #3E3E3E",
"@	c #484848",
"#	c #3A3A3A",
"$	c #4C4C4C",
"%	c #545454",
"&	c #4F4F4F",
"*	c #515151",
"=	c #3F3F3F",
"-	c #232323",
";	c #1D1D1D",
">	c #1E1E1E",
",	c #272727",
"'	c #242424",
")	c #2F2F2F",
"!	c #303030",
"~	c #2D2D2D",
"{	c #292929",
"]	c #323232",
"^	c #363636",
"/	c #2A2A2A",
"(	c #404040",
"_	c #1F1F1F",
":	c #2E2E2E",
"<	c #282828",
"[	c #313131",
"}	c #494949",
"                ",
"                ",
"                ",
"                ",
"     .+@#.      ",
"   ....$%$@     ",
"  ......&*=%%%  ",
"  --;>,')=.%%%% ",
"  ;-!~>;;;{&    ",
" ]^^-;;>/(%     ",
" .~>_:@%%%%%    ",
"!<[}%%%%%%%%    ",
" %%%%%%%%%%%    ",
"        %%%%    ",
"                ",
"                ",
"                "};
