/* XPM */
static char * crow32_xpm[] = {
"32 33 34 1",
" 	c None",
".	c #373737",
"+	c #3C3C3C",
"@	c #515151",
"#	c #414141",
"$	c #444444",
"%	c #545454",
"&	c #474747",
"*	c #383838",
"=	c #494949",
"-	c #4F4F4F",
";	c #4D4D4D",
">	c #3F3F3F",
",	c #363636",
"'	c #323232",
")	c #525252",
"!	c #1D1D1D",
"~	c #252525",
"{	c #2E2E2E",
"]	c #1E1E1E",
"^	c #292929",
"/	c #1F1F1F",
"(	c #2B2B2B",
"_	c #272727",
":	c #333333",
"<	c #202020",
"[	c #353535",
"}	c #2D2D2D",
"|	c #262626",
"1	c #3E3E3E",
"2	c #2A2A2A",
"3	c #484848",
"4	c #4C4C4C",
"5	c #232323",
"                                ",
"                                ",
"                                ",
"                                ",
"                                ",
"                                ",
"                                ",
"                                ",
"              ...               ",
"           ..+@#...             ",
"         .....$%%&**            ",
"        .......=%%%-            ",
"       .........;%%->%%%%       ",
"      .......,'..)%>*%%%%%%%    ",
"      !!!!!!!~{]^.)*.@%%%%%%%%  ",
"     !!!!!/(._!!!!_'.$%%%%%     ",
"     !!!~:*:]!!!!!!!<[%         ",
"     <}..._!!!!!!!!|1%          ",
"    *...:]!!!!!!23%%%%          ",
"    ..._!!!!/(3%%%%%%%          ",
"   ..:]!!/:4%%%%%%%%%%%         ",
"   ._!5*4%%%%%%%%%%%%%%         ",
"  }|*@%%%%%%%%%%%%%%%%%         ",
"    %%%%%%%%%%%%%%%%%%%         ",
"           %%%%%%%%%%%%%        ",
"                  %%%%%%        ",
"                                ",
"                                ",
"                                ",
"                                ",
"                                ",
"                                ",
"                                "};
